<svg id="Isolation_Mode" data-name="Isolation Mode" xmlns="http://www.w3.org/2000/svg" viewBox="0 0 547.38 1057.15"><defs><style>.cls-1{fill:#d5d5d5;}</style></defs><title>bg_network</title><path class="cls-1" d="M551.7,195.83l0.17-.36L519.15,150.8l-0.07,0c-1.06-1.35-7.58-6.3-43.6-31.37l46.2-87.38h0L536.77,0.42l-1.19-.57L520.35,31.77l-96-24.12,0.17-.46-0.77.19L427-.94l-1.22-.49-3.64,9.19L311.29,34.66l30-34.1-1-.87-31,35.25-62-36.4,0-.52L167.16,19.12l-0.25-.32-0.26.33L77.11-2l27.5,98.34L37.93,54.06,77.73,2.29l-1-.8L37.83,52l5-54.92L41.5-3,36.33,54,36,54.41l0.3,0.19-0.08,82.88L5.81,234.55l34.81,106,0.07,3.27L87.32,221.92l41.77,91L40.83,346.41l0.7,0.55,13.13,130.4-0.12.27,0.13,0.13V612.16l-58-134.61L40.24,344.13,39,343.72l-43.7,133.9,59.4,137.9L31.51,718.67l21.75,87L35.48,1050.58l1.31,0.1,17.78-245v-0.11L32.86,718.65,55.51,617.57,90.64,705l-36,107.09,43,186-52.46,57.27,1,0.89,52.09-56.87,32.92,56.75,1.14-.66-33-56.8,110.36-31.9-34.52,93.83,73.21-50.65,46.09,52.88,33.32-107,56.4,84c-10,7.12-25,17.53-26.31,18l0.42,1.25c2-.67,24.61-16.71,27.18-18.53l0.52-.37-57.47-85.55,0.91-.46,0.83,2.5,0.91-3.39,62.22-31.63L425.13,976a0.86,0.86,0,0,0-.05.27l-37.88,60.09,1.11,0.7,37.22-59c1.33,3.44,6.19,12.69,22.18,39.27,11.65,19.37,23.67,38.67,23.79,38.86l1.12-.7c-18-28.87-44.36-72.42-46.14-78.55,8.31,2.23,81.25,26.69,90.52,29.8l-42.13,46,1,0.89,43.5-47.51-1-.32c-3.41-1.15-79.48-26.68-91-30l58.88-47.36,29.31,74.92,1.23-.48-29.51-75.41,51.6-63.68L518.18,1003l0,0.22,29.09,52.89,1.16-.64L519.52,1003l21-141,0.53-.13-0.43-.58,0.32-2.12-1,1.21-2.55-3.46L521.46,708.16l-1.25.13,0.24-.33,0.46-.63-119-58.86,44.75-66L492,546.85l-0.11-.09L518.4,517l0.86,184.72-70.78-117.4-1.13.68L520.6,706.45l-0.89-191,0.08-.09-0.06-.19,32-140.35,0-.16L521.95,258.41Zm-1.36-.21-29.59,62.23-90.61,44.87,0-.06,0.82-1.39c4.61-7.79,27.56-46.59,48.92-82.76L518.15,257l0.93-.93-38.56-38.78c18.14-30.72,35-59.27,38.16-64.93ZM470.79,771.89l1.29,2.12-0.26,1.12-22.68,92.25-39.66-96.94-7.24-111.55L470,770.56l-58.07-.41v1.32Zm1.71,0.28-0.16-.27h0.22Zm-349.07,81L198.31,777l2.88-1.6,77.59,16.92,28.36-75,45,60.66-4,.57-69.22,14.79,0.13-.36Zm122.21,35.12,0.1-.23L325,951.37,211.85,965Zm-35,76.05-36.62-58.77L243.9,889Zm34.06-77.08,0.15,0.12L173,904.5c-3-1.25-32.35-29.46-52.15-48.9l155.94-60.42ZM108.13,475.22l60.94-65.69,13.36,85.14-66,40.22Zm7,59.37-59-57.28C70.68,445.45,92.38,398.85,97,391.15c1.36,11.47,9.68,83.16,9.77,83.93l0.16,1.42,0,0Zm48.6-371.67-75.19,56L106.15,99.3ZM107.32,98.63l127.38,11.43-69.95,52.07Zm57.26,65.28,42.76,47.28c-4.18,0-17.3.8-59.52,3.87-24.59,1.78-49.4,3.66-57.7,4.29Zm1.06-.79,69.7-51.89L208.5,210.5ZM393.24,413.51l-28.4-58.45,64.54-50.25L394.62,413.07Zm0.89,1.1-0.14.43-0.16-.34Zm-0.79,5.51-30,78.71c-4.46-4.16-31.42-35.93-50.45-58.64,7.86-2.16,42.84-13.26,79.72-25.07l0.85,1.75-0.57,1.78-0.08.25Zm-33.27,81.19-0.52.06,0,0.25L273,556.28,311.71,440.9c4,4.73,14.14,16.84,24.33,28.82,18.45,21.69,24.34,28.2,26.43,30.08ZM338.35,304.55l-96.74,24-0.77-2.72,51-142.26ZM291.92,180.11l0.41,0-0.28.29ZM271.05,556.48L184.7,495.6l74.43-51.79C261.63,450.07,267.52,513.34,271.05,556.48ZM236.49,383.1l53-10.92,20.35,66.39,0.12,0.23,0.43,0.51-50.64,2.88Zm31,117.81c-4.13-43.35-6.06-54.43-7.09-57.43l50-2.85L272.22,554.58C271.54,546.39,269.62,523.6,267.46,500.91Zm23.21-129.37,47.5-64,0,0.23,0.79-1.18,25,48.19,0.2,0.39-0.17.26c-0.13.21-13.62,20.83-26.85,41.41-18.58,28.89-24.19,38.24-25.8,41.45l-0.22-.26Zm73.73-14.38L392,413.92c-38.65,12.38-73.19,23.35-79.63,25.11C316,431.82,344.57,387.49,364.39,357.16Zm-24.54-51.63,0.26-.06-0.15-.39,45.22-67.4,0.1-.1L429,303.43,364.7,353.5Zm9.47-124.47c41-1,89.43-2.33,92.9-2.42h0.5l-0.61,1.15L385.5,235.53Zm0.29,2.82,34.93,52.59-0.33.32-44.34,66.07Zm-11,117.78L292.77,182.33c5.23,0,28.79-.57,55.74-1.25Zm-98.42,22c-11.06-39.29-29.45-105.12-30.7-111.35l81.18-29.52Zm0,5,0.26,0.92,0.17,0.61,96.94-24-48.07,64.74-53.23,11,4.53-51.49-1.31-.12L235,382.07l-0.29.06,0,0.11-63,24.27Zm-5,54.89,22.92,58.26-86.81-33.64Zm22.69,59.59-74.15,51.59-13.43-85.54ZM270.64,557.8l-0.69.43,1,0.14-25.57,69-61.87-131Zm1.51,1.06,0.45,0.32h0l53.83,37.36-79.87,31.38Zm114.1-322.21,55.56-54.72L429.69,300.87l-0.11,1Zm56.91-55,35.71,35.92c-20.16,34.15-41.72,70.6-47.57,80.48ZM443,178.15L402.72,70.8c16.91,11.61,46.21,31.81,71.05,49.1Zm-1.71-.8c-7,.19-52.49,1.4-91.45,2.39l51.48-109Zm-92.92,2.42c-26.1.66-49,1.2-55,1.24L400.57,68.83,400.65,69Zm-55.1-.56,10.1-86,95.39-24.34Zm-1.41.67,0-.12-0.19.53-54-70.34L302,93.54Zm-1.09,1.46-81,29.44,27-99.76Zm-82.22,32c1.15,5.27,6.68,26.29,30.95,112.46l-0.25.7,0.5,0.18,0.45,1.6-109-15.5Zm29.4,116-68.21,77.61L131,314ZM182.06,496.43L243.75,627,116.89,536.31l-0.05-.11Zm62.4,132.75c-34.71-.37-75.32-0.73-81.13-0.43l-45.17-89.91Zm0.12,1.32-45,142.15L163.75,630C170.5,629.77,222.83,630.26,244.58,630.5ZM198.31,772.85l-105.95-68,70.21-74.08Zm0.62,2-0.31,1-88.78,14.3L92.1,706.21Zm-89.8,16.82,0.37-.15,86.36-13.91-75.53,76.88-0.3.3Zm9.5,62.67L59.32,812.24l48.57-20.09Zm84.3-79.89,102.77-57-27.75,73.4Zm105-58.35,90.38-64.62,0.51,1.35L354.11,777.66l-0.51.07Zm40.44,63.74,4.69-.66,1.33,1.79,0.75-2.09,52.38-7.4L359.9,842.8l-77.79-48.86ZM360.7,844l48-72,39.92,97.57-0.3,1.2-88-25.42Zm47.44-74-52.55,7.43,44-123,1.2,2Zm-7.8-116.8-0.16-.43,0.3-.84,0.11,1.68Zm-1-2.56,0.24-.17-0.15.41Zm-0.48-1.27-0.68-1.79,1.6,1.14Zm-1.1.79L306.6,715.36,201,774l-0.38-.08L246.3,629.42,327,597.74l-20.6,113.94-59-79.15-1.06.79,60.85,81.58,21.16-117.06,68,48.39Zm-68.59-53.31h0l-1-.67-0.89-.63h0l-52.88-36.71,93.45,12.95L395.43,644ZM273.7,557.42l86-54.34,7.7,67.33Zm95.05,12.88-7.77-68,2.53-1.6,80.79,80.36-75.43-10.45Zm25.36-148.53L430.44,499l-0.09.2c-7.35,0-30.42-.19-47.44-0.19-8.57,0-15.61,0-18.34.14Zm0.65-1.71,0.73-1.91-0.68-1.39,0.85-2.64c32-10.25,64.85-20.86,82.25-26.48L431.13,497.38Zm1.4-7.49L430.1,306.91l48,79.29C455.48,393.51,424.95,403.35,396.17,412.57Zm33.89-108.28,0.21-.16,89.87-44.5L478.91,385Zm87.77-153c-2,3.6-19.43,33.2-38.26,65.1l-36.11-36.32,31.4-59.39C497,136.11,515.43,149.09,517.83,151.28Zm-94-142.39L519.73,33l-45.34,85.75-13.86-9.63C431.5,89,402,68.73,401.74,68.53l-0.47-.33h0l0.07-.19,0.61-.64-0.33-.11Zm-1.48.17-22,57.75L311.74,35.91ZM310,36.69l88.53,30.86-95,24.24Zm-7.84,55.46-63.52,16.2,69.92-70.72Zm6.22-56.21-71,71.86L247.1,0ZM245.8-.22L236,107.84,168,20.25ZM166.9,20.94L235,108.77,107,97.28ZM79-.2l86.77,20.46L106,96.4ZM37.62,55.43l66.77,42.34L37.55,132.42ZM7.19,234.54l29.12-92.93L40.52,336ZM41.87,337.08l-4.32-199.5v-3.66l49,86.35ZM87.23,218.56l0,0-0.06.16L38.71,133.31,104.87,99Zm1,2.25c38.76-2.95,109.3-8.18,119.26-8.37l-77.37,99.51-0.17-.4,0,0.07ZM130,314.93l38.41,92.18-65-17.22L103,391.16l65.25,17.28-60.36,65.07c-1.25-10.75-9.15-78.79-9.76-83.77Zm-1.2-.53L97.22,388.6,43.49,346.81ZM43,348.07l53.51,41.62c-1.66,2.3-6.21,11-21.37,43.43C66.8,450.88,58.55,468.85,55.74,475ZM56,479l59.41,57.7,0,0.18L56,613.43V479Zm0.1,136.44,59.23-76.27L89.57,698.77Zm34,84.66,0.56,0.09,26-161.35,45.43,90.42L91.57,703.74Zm8.12,294.64L56,812.12,91.07,707.81l15.43,76.29,1.16,6.73L56.61,811.93,118.8,856l-0.59.6,0.93-.36,0,0ZM120.4,857c12.65,12.42,46,45,51.88,48.54C169.35,911,128.07,961.43,99.37,996ZM100.24,997c4.68-5.65,20.64-24.92,36.34-44.15,27.19-33.3,34.62-43.16,36.53-46.32l36.66,58.81Zm77.63,60.1L211,967.05l36.52,41.9Zm116.07,3-44.45-51L326.39,956Zm34.74-107.12,0.1-.34-1.54,1.07-0.62.31,0.05,0.08-78.06,54-36.53-41.91,116.14-14L246.3,886.85l31.21-89.64L329,952.89Zm1.48-1L278.22,795.16l0.6-1.73L359.33,844Zm1.51-.52L360.31,845.4l30.78,75.84,0,0.09ZM392,919.9l-29.45-72.56L448,872l-0.23.94Zm34.17,55.2L394,919.95l54.26-45.64,37.43,52.92Zm112.65-114-0.94.23-0.19-1.77Zm-0.62,1.51-51.59,63.69-37.52-53.07,0.2-.8,2.19,0.63L450,869.45l23.11-94,0.08-.36,12.06,99.67,0.65-.08,0.16,0.64Zm-1.61-1-50.1,12.22-12.13-100.2,61.77,83.79Zm-0.73-6.78-61.63-83.6,46-62.87Zm-16.9-147-45.56,62.32-0.32-.43-0.2.88h-1.33L402.06,656.06l-0.41-6.24Zm-117.48-61-0.08-1.26-0.78,2.18-3.25-2.31L369.4,572,445,582.49Zm44.75-65.67-81.1-80.67c8-.23,48.76,0,65.46.09l59.32,46.33Zm44.66-35.15L432.4,500.28l0.09,0-0.6-1.27L479,388.48l39.32,126.6Zm59.56-171.23L519,512.7,479.79,386.6l0.47-1.11-0.14,0,41-124.86Z"/><path class="cls-1" d="M518.76,41.82c0.28,1.37,28,137,28,144.92H548c0-8.07-26.85-139.58-28-145.18Z"/><polygon class="cls-1" points="472.5 772.16 472.56 771.9 472.34 771.9 472.5 772.16"/><polygon class="cls-1" points="291.92 180.11 292.05 180.45 292.33 180.16 291.92 180.11"/><path class="cls-1" d="M394.13,414.62l-0.3.1,0.16,0.34Z"/><polygon class="cls-1" points="400.17 652.79 400.34 653.22 400.58 653.63 400.48 651.95 400.17 652.79"/><polygon class="cls-1" points="399.36 650.66 399.45 650.9 399.6 650.49 399.36 650.66"/><polygon class="cls-1" points="398.88 649.38 399.79 648.73 398.19 647.59 398.88 649.38"/><circle class="cls-1" cx="79.42" cy="1.28" r="6.5"/><circle class="cls-1" cx="36.39" cy="53.75" r="6"/><circle class="cls-1" cx="105.58" cy="97.48" r="6.5"/><circle class="cls-1" cx="162.74" cy="19.57" r="6.5"/><circle class="cls-1" cx="238.02" cy="108.93" r="6.5"/><circle class="cls-1" cx="164.68" cy="162.47" r="6.5"/><circle class="cls-1" cx="208.82" cy="211.84" r="6.5"/><circle class="cls-1" cx="87.5" cy="219.58" r="6.5"/><circle class="cls-1" cx="36.8" cy="134.96" r="6.5"/><circle class="cls-1" cx="6.5" cy="234.54" r="6.5"/><circle class="cls-1" cx="40.61" cy="343.92" r="6.5" transform="translate(-13.5 1.86) rotate(-2.26)"/><circle class="cls-1" cx="130.08" cy="314.08" r="6.5"/><circle class="cls-1" cx="240.15" cy="328.32" r="6.5"/><circle class="cls-1" cx="170.18" cy="407.65" r="6.5"/><circle class="cls-1" cx="97.49" cy="389.64" r="6.5"/><circle class="cls-1" cx="55.33" cy="477.47" r="6.5"/><circle class="cls-1" cx="116.69" cy="536.95" r="6.5"/><circle class="cls-1" cx="108.91" cy="469.56" r="6.5"/><circle class="cls-1" cx="182.8" cy="495.03" r="6.5"/><circle class="cls-1" cx="274.02" cy="557.39" r="6.5"/><circle class="cls-1" cx="246.62" cy="629.62" r="6.5"/><circle class="cls-1" cx="162.55" cy="630.25" r="6.5"/><circle class="cls-1" cx="55.33" cy="615.35" r="6.5"/><circle class="cls-1" cx="33.09" cy="716.85" r="6.5"/><circle class="cls-1" cx="-4.01" cy="477.58" r="6.5"/><circle class="cls-1" cx="91.34" cy="704.3" r="6.5"/><circle class="cls-1" cx="55.33" cy="812.08" r="6.5"/><circle class="cls-1" cx="120.32" cy="855.12" r="6.5"/><circle class="cls-1" cx="109.33" cy="790.84" r="6.5"/><circle class="cls-1" cx="198.75" cy="775.6" r="6.5"/><circle class="cls-1" cx="278.9" cy="794.06" r="6.5"/><circle class="cls-1" cx="306.95" cy="715.92" r="6.5"/><circle class="cls-1" cx="353.06" cy="777.08" r="6.5"/><circle class="cls-1" cx="361.41" cy="846.34" r="6.5"/><circle class="cls-1" cx="328.79" cy="952.73" r="6.5"/><circle class="cls-1" cx="245.04" cy="888.05" r="6.5"/><circle class="cls-1" cx="173.02" cy="905.18" r="6.5"/><circle class="cls-1" cx="99" cy="998.28" r="6.5"/><circle class="cls-1" cx="36.89" cy="1056.8" r="6.5"/><circle class="cls-1" cx="176.53" cy="1058.88" r="6.5"/><circle class="cls-1" cx="211.03" cy="966.54" r="6.5"/><circle class="cls-1" cx="249.43" cy="1007.06" r="6.5"/><circle class="cls-1" cx="292.1" cy="1057.12" r="6"/><circle class="cls-1" cx="385.12" cy="1039.99" r="6.5"/><circle class="cls-1" cx="426.08" cy="977.08" r="6.5"/><circle class="cls-1" cx="392.07" cy="920.11" r="6.5"/><circle class="cls-1" cx="447.72" cy="871.37" r="6.5"/><circle class="cls-1" cx="486.46" cy="926.6" r="6.5"/><circle class="cls-1" cx="486.8" cy="875.52" r="6.5"/><circle class="cls-1" cx="518.18" cy="1006.4" r="6.5"/><circle class="cls-1" cx="471.87" cy="1055.8" r="6.5"/><circle class="cls-1" cx="538.13" cy="861.71" r="6.5"/><circle class="cls-1" cx="408.39" cy="772" r="6.5"/><circle class="cls-1" cx="519.93" cy="707.57" r="6.5"/><circle class="cls-1" cx="399.93" cy="649.73" r="6.5"/><circle class="cls-1" cx="329.27" cy="598.42" r="6.5"/><circle class="cls-1" cx="444.4" cy="582.49" r="6.5"/><circle class="cls-1" cx="368.87" cy="571.44" r="6.5"/><circle class="cls-1" cx="363.6" cy="499.86" r="6.5"/><circle class="cls-1" cx="430.47" cy="499.06" r="6.5"/><circle class="cls-1" cx="490.27" cy="546.17" r="6.5"/><circle class="cls-1" cx="519.57" cy="515.23" r="6.5"/><circle class="cls-1" cx="478.61" cy="386.57" r="6.5"/><circle class="cls-1" cx="393.1" cy="414.87" r="6.5"/><circle class="cls-1" cx="311.34" cy="439.92" r="6.5"/><circle class="cls-1" cx="259.97" cy="443.97" r="6.5"/><circle class="cls-1" cx="237.89" cy="383.49" r="6.5"/><circle class="cls-1" cx="291.34" cy="371.95" r="6.5"/><circle class="cls-1" cx="339.23" cy="305.01" r="6.5"/><circle class="cls-1" cx="367.99" cy="353.63" r="6.5"/><circle class="cls-1" cx="430.71" cy="304.33" r="6.5"/><circle class="cls-1" cx="521.05" cy="259.34" r="6.5"/><circle class="cls-1" cx="442.45" cy="180.18" r="6.5"/><circle class="cls-1" cx="348.91" cy="179.93" r="6.5"/><circle class="cls-1" cx="289.61" cy="181.66" r="6.5"/><circle class="cls-1" cx="386.22" cy="236.99" r="6.5"/><circle class="cls-1" cx="547.38" cy="193.83" r="6.5"/><circle class="cls-1" cx="479.65" cy="218.01" r="6.5"/><circle class="cls-1" cx="476.02" cy="119.14" r="6.5"/><circle class="cls-1" cx="401.37" cy="69.08" r="6.5"/><circle class="cls-1" cx="307.05" cy="35.88" r="6.5"/><circle class="cls-1" cx="246.17" r="6.5"/><circle class="cls-1" cx="423.87" cy="9.98" r="6.5"/><circle class="cls-1" cx="518.53" cy="153.04" r="6.5"/><circle class="cls-1" cx="519.41" cy="34.6" r="6.5"/><circle class="cls-1" cx="551.11" cy="374.71" r="6.5"/><circle class="cls-1" cx="473.16" cy="773.66" r="6.5"/></svg>