<svg xmlns="http://www.w3.org/2000/svg" viewBox="0 0 355.78 189.94"><defs><style>.cls-1{fill:#24ae5f;}.cls-2{fill:#4fba6f;}</style></defs><title>logo</title><polygon class="cls-1" points="0 23.88 0 23.79 0 189.94 23.5 166.44 23.83 166.14 23.83 7.59 0 23.88"/><path class="cls-2" d="M166.14,160.52a64,64,0,0,1-23.87-21L71.46,26.5C55,0.32,23.79,0,23.79,0L0,23.79s31.25,0.32,47.66,26.5l70.82,113.06s16.51,26.58,47.66,26.58l0.16-.06,18.12-22.37-18.28-7h0Z"/><polygon class="cls-1" points="272.71 17.98 272.71 166.44 249.22 189.94 249.22 17.98 272.71 17.98"/><polygon class="cls-1" points="189.64 17.98 189.64 166.44 166.14 189.94 166.14 23.79 189.64 17.98"/><polygon class="cls-2" points="166.14 23.79 332.29 23.79 355.78 0 189.64 0 166.14 23.79"/></svg>
