<svg id="Isolation_Mode" data-name="Isolation Mode" xmlns="http://www.w3.org/2000/svg" viewBox="0 0 547.38 1057.15"><defs><style>.cls-1{fill:#d5d5d5}</style></defs><title>bg_network</title><path class="cls-1" d="M551.7 195.83l.17-.36-32.72-44.67h-.07c-1.06-1.35-7.58-6.3-43.6-31.37l46.2-87.38L536.77.42l-1.19-.57-15.23 31.92-96-24.12.17-.46-.77.19L427-.94l-1.22-.49-3.64 9.19-110.85 26.9 30-34.1-1-.87-31 35.25-62-36.4v-.52l-80.13 21.1-.25-.32-.26.33L77.11-2l27.5 98.34-66.68-42.28 39.8-51.77-1-.8L37.83 52l5-54.92L41.5-3l-5.17 57-.33.41.3.19-.08 82.88-30.41 97.07 34.81 106 .07 3.27 46.63-121.9 41.77 91-88.26 33.49.7.55 13.13 130.4-.12.27.13.13v134.4l-58-134.61 43.57-133.42-1.24-.41-43.7 133.9 59.4 137.9-23.19 103.15 21.75 87-17.78 244.91 1.31.1 17.78-245v-.11l-21.71-86.92 22.65-101.08L90.64 705l-36 107.09 43 186-52.46 57.27 1 .89 52.09-56.87 32.92 56.75 1.14-.66-33-56.8 110.36-31.9-34.52 93.83 73.21-50.65 46.09 52.88 33.32-107 56.4 84c-10 7.12-25 17.53-26.31 18l.42 1.25c2-.67 24.61-16.71 27.18-18.53l.52-.37-57.47-85.55.91-.46.83 2.5.91-3.39 62.22-31.63L425.13 976a.86.86 0 0 0-.05.27l-37.88 60.09 1.11.7 37.22-59c1.33 3.44 6.19 12.69 22.18 39.27 11.65 19.37 23.67 38.67 23.79 38.86l1.12-.7c-18-28.87-44.36-72.42-46.14-78.55 8.31 2.23 81.25 26.69 90.52 29.8l-42.13 46 1 .89 43.5-47.51-1-.32c-3.41-1.15-79.48-26.68-91-30l58.88-47.36 29.31 74.92 1.23-.48-29.51-75.41 51.6-63.68-20.7 139.21v.22l29.09 52.89 1.16-.64-28.91-52.47 21-141 .53-.13-.43-.58.32-2.12-1 1.21-2.55-3.46-15.93-148.76-1.25.13.24-.33.46-.63-119-58.86 44.75-66L492 546.85l-.11-.09L518.4 517l.86 184.72-70.78-117.4-1.13.68 73.25 121.45-.89-191 .08-.09-.06-.19 32-140.35v-.16l-29.78-116.25zm-1.36-.21l-29.59 62.23-90.61 44.87v-.06l.82-1.39c4.61-7.79 27.56-46.59 48.92-82.76L518.15 257l.93-.93-38.56-38.78c18.14-30.72 35-59.27 38.16-64.93zm-79.55 576.27l1.29 2.12-.26 1.12-22.68 92.25-39.66-96.94-7.24-111.55L470 770.56l-58.07-.41v1.32zm1.71.28l-.16-.27h.22zm-349.07 81L198.31 777l2.88-1.6 77.59 16.92 28.36-75 45 60.66-4 .57-69.22 14.79.13-.36zm122.21 35.12l.1-.23L325 951.37 211.85 965zm-35 76.05l-36.62-58.77L243.9 889zm34.06-77.08l.15.12L173 904.5c-3-1.25-32.35-29.46-52.15-48.9l155.94-60.42zM108.13 475.22l60.94-65.69 13.36 85.14-66 40.22zm7 59.37l-59-57.28c14.55-31.86 36.25-78.46 40.87-86.16 1.36 11.47 9.68 83.16 9.77 83.93l.16 1.42zm48.6-371.67l-75.19 56L106.15 99.3zm-56.41-64.29l127.38 11.43-69.95 52.07zm57.26 65.28l42.76 47.28c-4.18 0-17.3.8-59.52 3.87-24.59 1.78-49.4 3.66-57.7 4.29zm1.06-.79l69.7-51.89-26.84 99.27zm227.6 250.39l-28.4-58.45 64.54-50.25-34.76 108.26zm.89 1.1l-.14.43-.16-.34zm-.79 5.51l-30 78.71c-4.46-4.16-31.42-35.93-50.45-58.64 7.86-2.16 42.84-13.26 79.72-25.07l.85 1.75-.57 1.78-.08.25zm-33.27 81.19l-.52.06v.25L273 556.28l38.71-115.38c4 4.73 14.14 16.84 24.33 28.82 18.45 21.69 24.34 28.2 26.43 30.08zm-21.72-196.76l-96.74 24-.77-2.72 51-142.26zm-46.43-124.44h.41l-.28.29zm-20.87 376.37L184.7 495.6l74.43-51.79c2.5 6.26 8.39 69.53 11.92 112.67zM236.49 383.1l53-10.92 20.35 66.39.12.23.43.51-50.64 2.88zm31 117.81c-4.13-43.35-6.06-54.43-7.09-57.43l50-2.85-38.18 113.95c-.68-8.19-2.6-30.98-4.76-53.67zm23.21-129.37l47.5-64v.23l.79-1.18 25 48.19.2.39-.17.26c-.13.21-13.62 20.83-26.85 41.41-18.58 28.89-24.19 38.24-25.8 41.45l-.22-.26zm73.73-14.38L392 413.92c-38.65 12.38-73.19 23.35-79.63 25.11 3.63-7.21 32.2-51.54 52.02-81.87zm-24.54-51.63l.26-.06-.15-.39 45.22-67.4.1-.1L429 303.43l-64.3 50.07zm9.47-124.47c41-1 89.43-2.33 92.9-2.42h.5l-.61 1.15-56.65 55.74zm.29 2.82l34.93 52.59-.33.32-44.34 66.07zm-11 117.78l-45.88-119.33c5.23 0 28.79-.57 55.74-1.25zm-98.42 22c-11.06-39.29-29.45-105.12-30.7-111.35l81.18-29.52zm0 5l.26.92.17.61 96.94-24-48.07 64.74-53.23 11 4.53-51.49-1.31-.12-4.52 51.75-.29.06v.11l-63 24.27zm-5 54.89l22.92 58.26-86.81-33.64zm22.69 59.59l-74.15 51.59-13.43-85.54zm12.72 114.66l-.69.43 1 .14-25.57 69-61.87-131zm1.51 1.06l.45.32 53.83 37.36-79.87 31.38zm114.1-322.21l55.56-54.72-12.12 118.94-.11 1zm56.91-55l35.71 35.92c-20.16 34.15-41.72 70.6-47.57 80.48zm-.16-3.5L402.72 70.8c16.91 11.61 46.21 31.81 71.05 49.1zm-1.71-.8c-7 .19-52.49 1.4-91.45 2.39l51.48-109zm-92.92 2.42c-26.1.66-49 1.2-55 1.24l107.2-112.18.08.17zm-55.1-.56l10.1-86 95.39-24.34zm-1.41.67v-.12l-.19.53-54-70.34L302 93.54zm-1.09 1.46l-81 29.44 27-99.76zm-82.22 32c1.15 5.27 6.68 26.29 30.95 112.46l-.25.7.5.18.45 1.6-109-15.5zm29.4 116l-68.21 77.61L131 314zm-55.89 167.09L243.75 627l-126.86-90.69-.05-.11zm62.4 132.75c-34.71-.37-75.32-.73-81.13-.43l-45.17-89.91zm.12 1.32l-45 142.15L163.75 630c6.75-.23 59.08.26 80.83.5zm-46.27 142.35l-105.95-68 70.21-74.08zm.62 2l-.31 1-88.78 14.3-17.74-83.94zm-89.8 16.82l.37-.15 86.36-13.91-75.53 76.88-.3.3zm9.5 62.67l-59.31-42.1 48.57-20.09zm84.3-79.89l102.77-57-27.75 73.4zm105-58.35l90.38-64.62.51 1.35-44.71 124.83-.51.07zm40.44 63.74l4.69-.66 1.33 1.79.75-2.09 52.38-7.4-47.62 71.32-77.79-48.86zM360.7 844l48-72 39.92 97.57-.3 1.2-88-25.42zm47.44-74l-52.55 7.43 44-123 1.2 2zm-7.8-116.8l-.16-.43.3-.84.11 1.68zm-1-2.56l.24-.17-.15.41zm-.48-1.27l-.68-1.79 1.6 1.14zm-1.1.79l-91.16 65.2L201 774l-.38-.08 45.68-144.5 80.7-31.68-20.6 113.94-59-79.15-1.06.79 60.85 81.58 21.16-117.06 68 48.39zm-68.59-53.31l-1-.67-.89-.63-52.88-36.71 93.45 12.95L395.43 644zm-55.47-39.43l86-54.34 7.7 67.33zm95.05 12.88l-7.77-68 2.53-1.6 80.79 80.36-75.43-10.45zm25.36-148.53L430.44 499l-.09.2c-7.35 0-30.42-.19-47.44-.19-8.57 0-15.61 0-18.34.14zm.65-1.71l.73-1.91-.68-1.39.85-2.64c32-10.25 64.85-20.86 82.25-26.48l-46.78 109.74zm1.4-7.49l33.94-105.66 48 79.29c-22.62 7.31-53.15 17.15-81.93 26.37zm33.89-108.28l.21-.16 89.87-44.5L478.91 385zm87.77-153c-2 3.6-19.43 33.2-38.26 65.1l-36.11-36.32 31.4-59.39c22.15 15.43 40.58 28.41 42.98 30.6zm-94-142.39L519.73 33l-45.34 85.75-13.86-9.63C431.5 89 402 68.73 401.74 68.53l-.47-.33.07-.19.61-.64-.33-.11zm-1.48.17l-22 57.75-88.6-30.91zM310 36.69l88.53 30.86-95 24.24zm-7.84 55.46l-63.52 16.2 69.92-70.72zm6.22-56.21l-71 71.86L247.1 0zM245.8-.22L236 107.84l-68-87.59zm-78.9 21.16l68.1 87.83-128-11.49zM79-.2l86.77 20.46L106 96.4zM37.62 55.43l66.77 42.34-66.84 34.65zM7.19 234.54l29.12-92.93L40.52 336zm34.68 102.54l-4.32-199.5v-3.66l49 86.35zm45.36-118.52l-.06.16-48.46-85.41L104.87 99zm1 2.25c38.76-2.95 109.3-8.18 119.26-8.37l-77.37 99.51-.17-.4v.07zM130 314.93l38.41 92.18-65-17.22-.41 1.27 65.25 17.28-60.36 65.07c-1.25-10.75-9.15-78.79-9.76-83.77zm-1.2-.53l-31.58 74.2-53.73-41.79zM43 348.07l53.51 41.62c-1.66 2.3-6.21 11-21.37 43.43A4926.42 4926.42 0 0 0 55.74 475zM56 479l59.41 57.7v.18L56 613.43V479zm.1 136.44l59.23-76.27-25.76 159.6zm34 84.66l.56.09 26-161.35 45.43 90.42-70.52 74.48zm8.12 294.64L56 812.12l35.07-104.31 15.43 76.29 1.16 6.73-51.05 21.1L118.8 856l-.59.6.93-.36zM120.4 857c12.65 12.42 46 45 51.88 48.54-2.93 5.46-44.21 55.89-72.91 90.46zm-20.16 140c4.68-5.65 20.64-24.92 36.34-44.15 27.19-33.3 34.62-43.16 36.53-46.32l36.66 58.81zm77.63 60.1L211 967.05l36.52 41.9zm116.07 3l-44.45-51 76.9-53.1zm34.74-107.12l.1-.34-1.54 1.07-.62.31.05.08-78.06 54-36.53-41.91 116.14-14-81.92-65.34 31.21-89.64L329 952.89zm1.48-1l-51.94-156.82.6-1.73L359.33 844zm1.51-.52l28.64-106.06 30.78 75.84v.09zM392 919.9l-29.45-72.56L448 872l-.23.94zm34.17 55.2L394 919.95l54.26-45.64 37.43 52.92zm112.65-114l-.94.23-.19-1.77zm-.62 1.51l-51.59 63.69-37.52-53.07.2-.8 2.19.63-1.48-3.61 23.11-94 .08-.36 12.06 99.67.65-.08.16.64zm-1.61-1l-50.1 12.22-12.13-100.2 61.77 83.79zm-.73-6.78l-61.63-83.6 46-62.87zm-16.9-147l-45.56 62.32-.32-.43-.2.88h-1.33l-69.49-114.54-.41-6.24zm-117.48-61l-.08-1.26-.78 2.18-3.25-2.31L369.4 572l75.6 10.49zm44.75-65.67l-81.1-80.67c8-.23 48.76 0 65.46.09l59.32 46.33zm44.66-35.15l-58.49-45.73h.09l-.6-1.27L479 388.48l39.32 126.6zm59.56-171.23L519 512.7l-39.21-126.1.47-1.11h-.14l41-124.86z"/><path class="cls-1" d="M518.76 41.82c.28 1.37 28 137 28 144.92H548c0-8.07-26.85-139.58-28-145.18zM472.5 772.16l.06-.26h-.22l.16.26zM291.92 180.11l.13.34.28-.29-.41-.05zM394.13 414.62l-.3.1.16.34zM400.17 652.79l.17.43.24.41-.1-1.68-.31.84zM399.36 650.66l.09.24.15-.41-.24.17zM398.88 649.38l.91-.65-1.6-1.14.69 1.79z"/><circle class="cls-1" cx="79.42" cy="1.28" r="6.5"/><circle class="cls-1" cx="36.39" cy="53.75" r="6"/><circle class="cls-1" cx="105.58" cy="97.48" r="6.5"/><circle class="cls-1" cx="162.74" cy="19.57" r="6.5"/><circle class="cls-1" cx="238.02" cy="108.93" r="6.5"/><circle class="cls-1" cx="164.68" cy="162.47" r="6.5"/><circle class="cls-1" cx="208.82" cy="211.84" r="6.5"/><circle class="cls-1" cx="87.5" cy="219.58" r="6.5"/><circle class="cls-1" cx="36.8" cy="134.96" r="6.5"/><circle class="cls-1" cx="6.5" cy="234.54" r="6.5"/><circle class="cls-1" cx="40.61" cy="343.92" r="6.5" transform="rotate(-2.26 40.399 343.14)"/><circle class="cls-1" cx="130.08" cy="314.08" r="6.5"/><circle class="cls-1" cx="240.15" cy="328.32" r="6.5"/><circle class="cls-1" cx="170.18" cy="407.65" r="6.5"/><circle class="cls-1" cx="97.49" cy="389.64" r="6.5"/><circle class="cls-1" cx="55.33" cy="477.47" r="6.5"/><circle class="cls-1" cx="116.69" cy="536.95" r="6.5"/><circle class="cls-1" cx="108.91" cy="469.56" r="6.5"/><circle class="cls-1" cx="182.8" cy="495.03" r="6.5"/><circle class="cls-1" cx="274.02" cy="557.39" r="6.5"/><circle class="cls-1" cx="246.62" cy="629.62" r="6.5"/><circle class="cls-1" cx="162.55" cy="630.25" r="6.5"/><circle class="cls-1" cx="55.33" cy="615.35" r="6.5"/><circle class="cls-1" cx="33.09" cy="716.85" r="6.5"/><circle class="cls-1" cx="-4.01" cy="477.58" r="6.5"/><circle class="cls-1" cx="91.34" cy="704.3" r="6.5"/><circle class="cls-1" cx="55.33" cy="812.08" r="6.5"/><circle class="cls-1" cx="120.32" cy="855.12" r="6.5"/><circle class="cls-1" cx="109.33" cy="790.84" r="6.5"/><circle class="cls-1" cx="198.75" cy="775.6" r="6.5"/><circle class="cls-1" cx="278.9" cy="794.06" r="6.5"/><circle class="cls-1" cx="306.95" cy="715.92" r="6.5"/><circle class="cls-1" cx="353.06" cy="777.08" r="6.5"/><circle class="cls-1" cx="361.41" cy="846.34" r="6.5"/><circle class="cls-1" cx="328.79" cy="952.73" r="6.5"/><circle class="cls-1" cx="245.04" cy="888.05" r="6.5"/><circle class="cls-1" cx="173.02" cy="905.18" r="6.5"/><circle class="cls-1" cx="99" cy="998.28" r="6.5"/><circle class="cls-1" cx="36.89" cy="1056.8" r="6.5"/><circle class="cls-1" cx="176.53" cy="1058.88" r="6.5"/><circle class="cls-1" cx="211.03" cy="966.54" r="6.5"/><circle class="cls-1" cx="249.43" cy="1007.06" r="6.5"/><circle class="cls-1" cx="292.1" cy="1057.12" r="6"/><circle class="cls-1" cx="385.12" cy="1039.99" r="6.5"/><circle class="cls-1" cx="426.08" cy="977.08" r="6.5"/><circle class="cls-1" cx="392.07" cy="920.11" r="6.5"/><circle class="cls-1" cx="447.72" cy="871.37" r="6.5"/><circle class="cls-1" cx="486.46" cy="926.6" r="6.5"/><circle class="cls-1" cx="486.8" cy="875.52" r="6.5"/><circle class="cls-1" cx="518.18" cy="1006.4" r="6.5"/><circle class="cls-1" cx="471.87" cy="1055.8" r="6.5"/><circle class="cls-1" cx="538.13" cy="861.71" r="6.5"/><circle class="cls-1" cx="408.39" cy="772" r="6.5"/><circle class="cls-1" cx="519.93" cy="707.57" r="6.5"/><circle class="cls-1" cx="399.93" cy="649.73" r="6.5"/><circle class="cls-1" cx="329.27" cy="598.42" r="6.5"/><circle class="cls-1" cx="444.4" cy="582.49" r="6.5"/><circle class="cls-1" cx="368.87" cy="571.44" r="6.5"/><circle class="cls-1" cx="363.6" cy="499.86" r="6.5"/><circle class="cls-1" cx="430.47" cy="499.06" r="6.5"/><circle class="cls-1" cx="490.27" cy="546.17" r="6.5"/><circle class="cls-1" cx="519.57" cy="515.23" r="6.5"/><circle class="cls-1" cx="478.61" cy="386.57" r="6.5"/><circle class="cls-1" cx="393.1" cy="414.87" r="6.5"/><circle class="cls-1" cx="311.34" cy="439.92" r="6.5"/><circle class="cls-1" cx="259.97" cy="443.97" r="6.5"/><circle class="cls-1" cx="237.89" cy="383.49" r="6.5"/><circle class="cls-1" cx="291.34" cy="371.95" r="6.5"/><circle class="cls-1" cx="339.23" cy="305.01" r="6.5"/><circle class="cls-1" cx="367.99" cy="353.63" r="6.5"/><circle class="cls-1" cx="430.71" cy="304.33" r="6.5"/><circle class="cls-1" cx="521.05" cy="259.34" r="6.5"/><circle class="cls-1" cx="442.45" cy="180.18" r="6.5"/><circle class="cls-1" cx="348.91" cy="179.93" r="6.5"/><circle class="cls-1" cx="289.61" cy="181.66" r="6.5"/><circle class="cls-1" cx="386.22" cy="236.99" r="6.5"/><circle class="cls-1" cx="547.38" cy="193.83" r="6.5"/><circle class="cls-1" cx="479.65" cy="218.01" r="6.5"/><circle class="cls-1" cx="476.02" cy="119.14" r="6.5"/><circle class="cls-1" cx="401.37" cy="69.08" r="6.5"/><circle class="cls-1" cx="307.05" cy="35.88" r="6.5"/><circle class="cls-1" cx="246.17" r="6.5"/><circle class="cls-1" cx="423.87" cy="9.98" r="6.5"/><circle class="cls-1" cx="518.53" cy="153.04" r="6.5"/><circle class="cls-1" cx="519.41" cy="34.6" r="6.5"/><circle class="cls-1" cx="551.11" cy="374.71" r="6.5"/><circle class="cls-1" cx="473.16" cy="773.66" r="6.5"/></svg>